<svg xmlns="http://www.w3.org/2000/svg" viewBox="0 0 267.3 43.29"><defs><style>.cls-1{fill:#da2c38;}.cls-2{fill:#495975;}.cls-3{fill:#4382a9;}</style></defs><g id="Capa_2" data-name="Capa 2"><g id="Capa_1-2" data-name="Capa 1"><polygon class="cls-1" points="45.56 33.66 68.98 43.3 68.98 37.91 50.89 31.41 50.89 30.97 68.98 24.46 68.98 19.09 45.56 28.72 45.56 33.66"/><polygon class="cls-1" points="45.75 0 45.75 5.38 62.87 11.88 62.87 12.32 45.75 18.83 45.75 24.21 69.18 14.57 69.18 9.63 45.75 0"/><path class="cls-2" d="M97.29,24.41c0-3.43-1-6-3.12-7.82s-5.26-2.71-9.55-2.77l-5.23-.08-.49,4.6,6.21.17a10.39,10.39,0,0,1,5.42,1.31,4.24,4.24,0,0,1,1.82,3.8v1.22c-.25-.05-.48-.11-.74-.15a27.18,27.18,0,0,0-4.15-.28q-5.59,0-8.67,2.2a7.3,7.3,0,0,0-3.07,6.31A6.93,6.93,0,0,0,78,38.44a9.18,9.18,0,0,0,6.28,2,12,12,0,0,0,4.45-.75,6.17,6.17,0,0,0,2.93-2.25,6.1,6.1,0,0,0,1-3h.52l.26,5.72,8.31-.24V35.75l-4.4-.54Zm-5.74,8.87a5.9,5.9,0,0,1-2.44,2.13,8.87,8.87,0,0,1-4,.83,5.12,5.12,0,0,1-3.28-.93,3.18,3.18,0,0,1-1.17-2.64q0-4.11,6.75-4.11c1.1,0,2.16,0,3.21.06.58,0,1.18.09,1.78.18v1.82A5,5,0,0,1,91.55,33.28Z"/><path class="cls-2" d="M118.74,13.5c-4,0-6.11,1.73-6.36,5.18h-.49V3.23h-5.18V39.91c1.17.15,2.33.26,3.47.35s2.3.14,3.47.14q7.6,0,11.78-4t4.17-11.18c0-3.75-.95-6.65-2.84-8.68S122.2,13.5,118.74,13.5Zm3.17,19.68A9.28,9.28,0,0,1,114.68,36c-.92,0-1.85,0-2.79-.1V25.33q0-7.42,6.6-7.43a5.39,5.39,0,0,1,4.42,1.91,8.42,8.42,0,0,1,1.55,5.43Q124.46,30.37,121.91,33.18Z"/><path class="cls-2" d="M156,24.41c0-3.43-1-6-3.11-7.82s-5.27-2.71-9.55-2.77l-5.24-.08-.49,4.6,6.22.17a10.38,10.38,0,0,1,5.41,1.31,4.22,4.22,0,0,1,1.82,3.8v1.22c-.25-.05-.48-.11-.74-.15a27.18,27.18,0,0,0-4.15-.28q-5.6,0-8.67,2.2a7.3,7.3,0,0,0-3.07,6.31,7,7,0,0,0,2.23,5.52,9.18,9.18,0,0,0,6.28,2,12,12,0,0,0,4.46-.75,6.2,6.2,0,0,0,2.92-2.25,6.1,6.1,0,0,0,1-3h.53l.25,5.72,8.32-.24V35.75L156,35.21Zm-5.74,8.87a5.9,5.9,0,0,1-2.44,2.13,8.86,8.86,0,0,1-4,.83,5.14,5.14,0,0,1-3.29-.93,3.17,3.17,0,0,1-1.16-2.64q0-4.11,6.75-4.11c1.09,0,2.15,0,3.2.06.59,0,1.18.09,1.78.18v1.82A5,5,0,0,1,150.24,33.28Z"/><path class="cls-2" d="M178.21,35.75a7.27,7.27,0,0,1-3.36-.61,3.07,3.07,0,0,1-1.53-1.91,11.88,11.88,0,0,1-.39-3.35V3.23H160.12V7.78h7.63V30.13c0,3.58.66,6.19,2,7.82s3.51,2.45,6.51,2.45a28.3,28.3,0,0,0,3.92-.25,28.87,28.87,0,0,0,3.8-.78l-.58-4.55A19.26,19.26,0,0,1,178.21,35.75Z"/><path class="cls-2" d="M198.14,13.5q-5.58,0-8.63,3.52t-3.06,9.88q0,6.52,3.61,10c2.4,2.33,5.82,3.49,10.23,3.49,1,0,2.11,0,3.38-.12a34.53,34.53,0,0,0,4.2-.57l-.63-4.54c-1.08.21-2.14.37-3.18.5a27.72,27.72,0,0,1-3.18.18q-4.62,0-7.13-2.35a7.77,7.77,0,0,1-2.25-4.25H209q.15-1.55.15-3.33,0-6.06-2.88-9.24T198.14,13.5Zm-6.83,11.79a8.84,8.84,0,0,1,1.76-5,6.21,6.21,0,0,1,5.12-2.25,5.83,5.83,0,0,1,4.6,1.87,7.8,7.8,0,0,1,1.66,5.37Z"/><path class="cls-2" d="M236.45,35.26c-1.17.15-2.22.27-3.13.36s-1.78.13-2.59.13q-3.45,0-5-1.39c-1-.93-1.5-2.42-1.5-4.48V18.54h11.79V14H224.27V6.16h-5.18V14h-6.51v4.55h6.51V30.13c0,3.58.87,6.19,2.63,7.82s4.59,2.45,8.52,2.45c1.22,0,2.37,0,3.46-.15s2.19-.24,3.34-.44Z"/><path class="cls-2" d="M262.9,35.21V24.41c0-3.43-1-6-3.12-7.82s-5.26-2.71-9.55-2.77L245,13.74l-.49,4.6,6.21.17a10.42,10.42,0,0,1,5.42,1.31,4.24,4.24,0,0,1,1.82,3.8v1.22c-.25-.05-.48-.11-.75-.15a27,27,0,0,0-4.14-.28q-5.59,0-8.67,2.2a7.28,7.28,0,0,0-3.07,6.31,6.93,6.93,0,0,0,2.23,5.52,9.18,9.18,0,0,0,6.28,2,12,12,0,0,0,4.45-.75,5.87,5.87,0,0,0,3.92-5.22h.52l.26,5.72,8.31-.24V35.75Zm-5.75-1.93a5.87,5.87,0,0,1-2.43,2.13,8.87,8.87,0,0,1-4.05.83,5.15,5.15,0,0,1-3.29-.93,3.2,3.2,0,0,1-1.16-2.64q0-4.11,6.75-4.11,1.64,0,3.21.06c.58,0,1.18.09,1.78.18v1.82A5,5,0,0,1,257.15,33.28Z"/><path class="cls-3" d="M21.57,35.21V24.41c0-3.43-1-6-3.12-7.82s-5.26-2.71-9.55-2.77l-5.23-.08-.49,4.6,6.21.17a10.42,10.42,0,0,1,5.42,1.31,4.24,4.24,0,0,1,1.82,3.8v1.22c-.25-.05-.48-.11-.75-.15a27,27,0,0,0-4.14-.28q-5.61,0-8.67,2.2A7.28,7.28,0,0,0,0,32.92a6.93,6.93,0,0,0,2.23,5.52,9.16,9.16,0,0,0,6.28,2A12,12,0,0,0,13,39.65a5.87,5.87,0,0,0,3.92-5.22h.52l.26,5.72L26,39.91V35.75Zm-5.75-1.93a5.93,5.93,0,0,1-2.43,2.13,8.9,8.9,0,0,1-4.05.83,5.15,5.15,0,0,1-3.29-.93,3.2,3.2,0,0,1-1.16-2.64q0-4.11,6.75-4.11c1.09,0,2.16,0,3.2.06.59,0,1.19.09,1.79.18v1.82A5,5,0,0,1,15.82,33.28Z"/><path class="cls-3" d="M34.78,40.8a3.67,3.67,0,0,1-3.67-3.66,3.52,3.52,0,0,1,1.08-2.6,3.67,3.67,0,1,1,2.59,6.26Z"/></g></g></svg>